<svg xmlns="http://www.w3.org/2000/svg" width="1500" height="760" viewBox="0 0 1500 760">
<rect width="100%" height="100%" fill="white"/>
<style>text{font-family:Arial,Helvetica,sans-serif;fill:#263238}.title{font-size:30px;font-weight:700}.sub{font-size:17px;fill:#6d7780}.small{font-size:13px;fill:#6d7780}.label{font-size:15px}.bold{font-weight:700}.grid{stroke:#e8edf1;stroke-width:1}.axis{stroke:#ccd5dc;stroke-width:1}.note{font-size:14px;fill:#6d7780}</style>
<text x="60.0" y="60.0" class="title" text-anchor="start">Water Use Timeline</text>
<text x="60.0" y="90.0" class="sub" text-anchor="start">GPD normalizes billing-period length and makes the real trend easier to see.</text>
<line x1="105.0" y1="615.0" x2="1395.0" y2="615.0" stroke="#d9e0e5" stroke-width="1"/>
<text x="93.0" y="620.0" class="small" text-anchor="end">0</text>
<line x1="105.0" y1="525.0" x2="1395.0" y2="525.0" stroke="#d9e0e5" stroke-width="1"/>
<text x="93.0" y="530.0" class="small" text-anchor="end">90</text>
<line x1="105.0" y1="435.0" x2="1395.0" y2="435.0" stroke="#d9e0e5" stroke-width="1"/>
<text x="93.0" y="440.0" class="small" text-anchor="end">180</text>
<line x1="105.0" y1="345.0" x2="1395.0" y2="345.0" stroke="#d9e0e5" stroke-width="1"/>
<text x="93.0" y="350.0" class="small" text-anchor="end">270</text>
<line x1="105.0" y1="255.0" x2="1395.0" y2="255.0" stroke="#d9e0e5" stroke-width="1"/>
<text x="93.0" y="260.0" class="small" text-anchor="end">360</text>
<line x1="105.0" y1="165.0" x2="1395.0" y2="165.0" stroke="#d9e0e5" stroke-width="1"/>
<text x="93.0" y="170.0" class="small" text-anchor="end">450</text>
<line x1="105.0" y1="615.0" x2="1395.0" y2="615.0" stroke="#ccd5dc" stroke-width="1.2"/>
<line x1="105.0" y1="165.0" x2="105.0" y2="615.0" stroke="#ccd5dc" stroke-width="1.2"/>
<rect x="105.0" y="423.0" width="1290.0" height="20.0" rx="0" fill="#f2b31b" stroke="none" opacity="0.16"/>
<path d="M 105.0 433.0 L 146.1 409.0 L 186.5 310.0 L 227.6 223.0 L 268.7 240.0 L 313.3 401.0 L 354.4 474.0 L 395.5 478.0 L 435.9 317.0 L 477.0 227.0 L 518.1 213.0 L 563.3 383.0 L 604.4 470.0 L 645.5 479.0 L 685.9 313.0 L 727.0 214.0 L 768.8 206.0 L 812.7 361.0 L 855.2 476.0 L 894.2 482.0 L 936.7 301.0 L 977.1 181.0 L 1018.9 186.0 L 1063.4 348.0 L 1105.2 471.0 L 1144.9 459.0 L 1186.7 319.0 L 1227.8 204.0 L 1268.9 223.0 L 1315.6 400.0 L 1355.3 473.0 L 1395.0 422.0" fill="none" stroke="#aab4bd" stroke-width="2.4" stroke-linejoin="round" stroke-linecap="round"/>
<path d="M 105.0 504.0 L 146.1 489.0 L 186.5 439.0 L 227.6 397.0 L 268.7 409.0 L 313.3 489.0 L 354.4 522.0 L 395.5 529.0 L 435.9 447.0 L 477.0 399.0 L 518.1 393.0 L 563.3 478.0 L 604.4 519.0 L 645.5 529.0 L 685.9 444.0 L 727.0 394.0 L 768.8 391.0 L 812.7 467.0 L 855.2 522.0 L 894.2 529.0 L 936.7 437.0 L 977.1 375.0 L 1018.9 375.0 L 1063.4 464.0 L 1105.2 519.0 L 1144.9 517.0 L 1186.7 448.0 L 1227.8 386.0 L 1268.9 395.0 L 1315.6 487.0 L 1355.3 521.0 L 1395.0 499.0" fill="none" stroke="#2166a5" stroke-width="2.4" stroke-linejoin="round" stroke-linecap="round"/>
<path d="M 105.0 488.0 L 146.1 478.0 L 186.5 412.0 L 227.6 391.0 L 268.7 428.0 L 313.3 477.0 L 354.4 453.0 L 395.5 478.0 L 435.9 412.0 L 477.0 378.0 L 518.1 428.0 L 563.3 468.0 L 604.4 465.0 L 645.5 490.0 L 685.9 387.0 L 727.0 341.0 L 768.8 394.0 L 812.7 498.0 L 855.2 470.0 L 894.2 471.0 L 936.7 398.0 L 977.1 336.0 L 1018.9 394.0 L 1063.4 431.0 L 1105.2 407.0 L 1144.9 435.0 L 1186.7 370.0 L 1227.8 316.0 L 1268.9 379.0 L 1315.6 439.0 L 1355.3 461.0 L 1395.0 422.0" fill="none" stroke="#39b9c6" stroke-width="3.2" stroke-linejoin="round" stroke-linecap="round"/>
<circle cx="105.0" cy="488.0" r="5.5" fill="#39b9c6" stroke="white" stroke-width="2"/>
<circle cx="146.1" cy="478.0" r="5.5" fill="#39b9c6" stroke="white" stroke-width="2"/>
<circle cx="186.5" cy="412.0" r="5.5" fill="#39b9c6" stroke="white" stroke-width="2"/>
<circle cx="227.6" cy="391.0" r="5.5" fill="#39b9c6" stroke="white" stroke-width="2"/>
<circle cx="268.7" cy="428.0" r="5.5" fill="#39b9c6" stroke="white" stroke-width="2"/>
<circle cx="313.3" cy="477.0" r="5.5" fill="#39b9c6" stroke="white" stroke-width="2"/>
<circle cx="354.4" cy="453.0" r="5.5" fill="#39b9c6" stroke="white" stroke-width="2"/>
<circle cx="395.5" cy="478.0" r="5.5" fill="#39b9c6" stroke="white" stroke-width="2"/>
<circle cx="435.9" cy="412.0" r="5.5" fill="#39b9c6" stroke="white" stroke-width="2"/>
<circle cx="477.0" cy="378.0" r="5.5" fill="#39b9c6" stroke="white" stroke-width="2"/>
<circle cx="518.1" cy="428.0" r="5.5" fill="#39b9c6" stroke="white" stroke-width="2"/>
<circle cx="563.3" cy="468.0" r="5.5" fill="#39b9c6" stroke="white" stroke-width="2"/>
<circle cx="604.4" cy="465.0" r="5.5" fill="#39b9c6" stroke="white" stroke-width="2"/>
<circle cx="645.5" cy="490.0" r="5.5" fill="#39b9c6" stroke="white" stroke-width="2"/>
<circle cx="685.9" cy="387.0" r="5.5" fill="#39b9c6" stroke="white" stroke-width="2"/>
<circle cx="727.0" cy="341.0" r="5.5" fill="#39b9c6" stroke="white" stroke-width="2"/>
<circle cx="768.8" cy="394.0" r="5.5" fill="#39b9c6" stroke="white" stroke-width="2"/>
<circle cx="812.7" cy="498.0" r="5.5" fill="#39b9c6" stroke="white" stroke-width="2"/>
<circle cx="855.2" cy="470.0" r="5.5" fill="#39b9c6" stroke="white" stroke-width="2"/>
<circle cx="894.2" cy="471.0" r="5.5" fill="#39b9c6" stroke="white" stroke-width="2"/>
<circle cx="936.7" cy="398.0" r="5.5" fill="#39b9c6" stroke="white" stroke-width="2"/>
<circle cx="977.1" cy="336.0" r="5.5" fill="#39b9c6" stroke="white" stroke-width="2"/>
<circle cx="1018.9" cy="394.0" r="5.5" fill="#39b9c6" stroke="white" stroke-width="2"/>
<circle cx="1063.4" cy="431.0" r="5.5" fill="#39b9c6" stroke="white" stroke-width="2"/>
<circle cx="1105.2" cy="407.0" r="5.5" fill="#39b9c6" stroke="white" stroke-width="2"/>
<circle cx="1144.9" cy="435.0" r="5.5" fill="#39b9c6" stroke="white" stroke-width="2"/>
<circle cx="1186.7" cy="370.0" r="5.5" fill="#39b9c6" stroke="white" stroke-width="2"/>
<circle cx="1227.8" cy="316.0" r="5.5" fill="#39b9c6" stroke="white" stroke-width="2"/>
<circle cx="1268.9" cy="379.0" r="5.5" fill="#39b9c6" stroke="white" stroke-width="2"/>
<circle cx="1315.6" cy="439.0" r="5.5" fill="#39b9c6" stroke="white" stroke-width="2"/>
<circle cx="1355.3" cy="461.0" r="5.5" fill="#39b9c6" stroke="white" stroke-width="2"/>
<circle cx="1395.0" cy="422.0" r="5.5" fill="#39b9c6" stroke="white" stroke-width="2"/>
<text x="1237.8" y="304.0" class="small" text-anchor="start" style="fill:#e96f47;font-weight:700">Peak: 299 GPD</text>
<text x="61.8" y="645.0" class="small" text-anchor="middle">2021</text>
<text x="311.9" y="645.0" class="small" text-anchor="middle">2022</text>
<text x="562.0" y="645.0" class="small" text-anchor="middle">2023</text>
<text x="812.0" y="645.0" class="small" text-anchor="middle">2024</text>
<text x="1062.8" y="645.0" class="small" text-anchor="middle">2025</text>
<text x="1312.8" y="645.0" class="small" text-anchor="middle">2026</text>
<text x="60.0" y="710.0" class="note" text-anchor="start">Estimated current baseline band centers around 182 GPD.</text>
</svg>