<svg xmlns="http://www.w3.org/2000/svg" width="1150" height="760" viewBox="0 0 1150 760">
<rect width="100%" height="100%" fill="white"/>
<style>text{font-family:Arial,Helvetica,sans-serif;fill:#263238}.title{font-size:30px;font-weight:700}.sub{font-size:17px;fill:#6d7780}.small{font-size:13px;fill:#6d7780}.label{font-size:15px}.bold{font-weight:700}.grid{stroke:#e8edf1;stroke-width:1}.axis{stroke:#ccd5dc;stroke-width:1}.note{font-size:14px;fill:#6d7780}</style>
<text x="60.0" y="60.0" class="title" text-anchor="start">Seasonality</text>
<text x="60.0" y="90.0" class="sub" text-anchor="start">Summer and fall usually carry the outdoor demand.</text>
<line x1="110.0" y1="620.0" x2="1010.0" y2="620.0" stroke="#d9e0e5" stroke-width="1"/>
<text x="98.0" y="625.0" class="small" text-anchor="end">0</text>
<line x1="110.0" y1="526.0" x2="1010.0" y2="526.0" stroke="#d9e0e5" stroke-width="1"/>
<text x="98.0" y="531.0" class="small" text-anchor="end">50</text>
<line x1="110.0" y1="432.0" x2="1010.0" y2="432.0" stroke="#d9e0e5" stroke-width="1"/>
<text x="98.0" y="437.0" class="small" text-anchor="end">100</text>
<line x1="110.0" y1="338.0" x2="1010.0" y2="338.0" stroke="#d9e0e5" stroke-width="1"/>
<text x="98.0" y="343.0" class="small" text-anchor="end">150</text>
<line x1="110.0" y1="244.0" x2="1010.0" y2="244.0" stroke="#d9e0e5" stroke-width="1"/>
<text x="98.0" y="249.0" class="small" text-anchor="end">200</text>
<line x1="110.0" y1="150.0" x2="1010.0" y2="150.0" stroke="#d9e0e5" stroke-width="1"/>
<text x="98.0" y="155.0" class="small" text-anchor="end">250</text>
<line x1="110.0" y1="620.0" x2="1010.0" y2="620.0" stroke="#ccd5dc" stroke-width="1.2"/>
<line x1="110.0" y1="150.0" x2="110.0" y2="620.0" stroke="#ccd5dc" stroke-width="1.2"/>
<rect x="194.0" y="333.5" width="120.0" height="286.5" rx="6" fill="#2166a5" stroke="none"/>
<text x="254.0" y="319.5" class="label" text-anchor="middle" style="font-weight:700">152 GPD</text>
<text x="254.0" y="652.0" class="label" text-anchor="middle">Winter</text>
<rect x="398.0" y="328.3" width="120.0" height="291.7" rx="6" fill="#39b9c6" stroke="none"/>
<text x="458.0" y="314.3" class="label" text-anchor="middle" style="font-weight:700">155 GPD</text>
<text x="458.0" y="652.0" class="label" text-anchor="middle">Spring</text>
<rect x="602.0" y="167.1" width="120.0" height="452.9" rx="6" fill="#f2b31b" stroke="none"/>
<text x="662.0" y="153.1" class="label" text-anchor="middle" style="font-weight:700">241 GPD</text>
<text x="662.0" y="652.0" class="label" text-anchor="middle">Summer</text>
<rect x="806.0" y="224.4" width="120.0" height="395.6" rx="6" fill="#e96f47" stroke="none"/>
<text x="866.0" y="210.4" class="label" text-anchor="middle" style="font-weight:700">210 GPD</text>
<text x="866.0" y="652.0" class="label" text-anchor="middle">Fall</text>
</svg>