<svg xmlns="http://www.w3.org/2000/svg" width="1500" height="760" viewBox="0 0 1500 760">
<rect width="100%" height="100%" fill="white"/>
<style>text{font-family:Arial,Helvetica,sans-serif;fill:#263238}.title{font-size:30px;font-weight:700}.sub{font-size:17px;fill:#6d7780}.small{font-size:13px;fill:#6d7780}.label{font-size:15px}.bold{font-weight:700}.grid{stroke:#e8edf1;stroke-width:1}.axis{stroke:#ccd5dc;stroke-width:1}.note{font-size:14px;fill:#6d7780}</style>
<text x="60.0" y="60.0" class="title" text-anchor="start">Indoor baseline vs outdoor lift</text>
<text x="60.0" y="90.0" class="sub" text-anchor="start">Separates likely everyday household use from seasonal yard water.</text>
<line x1="105.0" y1="615.0" x2="1395.0" y2="615.0" stroke="#d9e0e5" stroke-width="1"/>
<text x="93.0" y="620.0" class="small" text-anchor="end">0</text>
<line x1="105.0" y1="525.0" x2="1395.0" y2="525.0" stroke="#d9e0e5" stroke-width="1"/>
<text x="93.0" y="530.0" class="small" text-anchor="end">60</text>
<line x1="105.0" y1="435.0" x2="1395.0" y2="435.0" stroke="#d9e0e5" stroke-width="1"/>
<text x="93.0" y="440.0" class="small" text-anchor="end">120</text>
<line x1="105.0" y1="345.0" x2="1395.0" y2="345.0" stroke="#d9e0e5" stroke-width="1"/>
<text x="93.0" y="350.0" class="small" text-anchor="end">180</text>
<line x1="105.0" y1="255.0" x2="1395.0" y2="255.0" stroke="#d9e0e5" stroke-width="1"/>
<text x="93.0" y="260.0" class="small" text-anchor="end">240</text>
<line x1="105.0" y1="165.0" x2="1395.0" y2="165.0" stroke="#d9e0e5" stroke-width="1"/>
<text x="93.0" y="170.0" class="small" text-anchor="end">300</text>
<line x1="105.0" y1="615.0" x2="1395.0" y2="615.0" stroke="#ccd5dc" stroke-width="1.2"/>
<line x1="105.0" y1="165.0" x2="105.0" y2="615.0" stroke="#ccd5dc" stroke-width="1.2"/>
<polygon points="105.0,615.0 105.0,427.5 146.7,427.5 188.4,352.5 209.6,352.5 251.3,352.5 314.2,390.0 354.5,390.0 396.2,427.5 437.9,352.5 459.1,352.5 500.8,352.5 563.7,390.0 604.0,390.0 645.7,427.5 687.4,352.5 708.6,352.5 750.3,352.5 813.3,427.5 854.3,390.0 875.4,390.0 937.7,352.5 958.8,352.5 1000.5,352.5 1063.5,352.5 1103.8,352.5 1145.5,352.5 1187.2,352.5 1208.4,352.5 1250.1,352.5 1313.0,352.5 1353.3,390.0 1395.0,352.5 1395.0,615.0" fill="#39b9c6" opacity="0.82"/>
<polygon points="105.0,427.5 146.7,427.5 188.4,352.5 209.6,352.5 251.3,352.5 314.2,390.0 354.5,390.0 396.2,427.5 437.9,352.5 459.1,352.5 500.8,352.5 563.7,390.0 604.0,390.0 645.7,427.5 687.4,352.5 708.6,352.5 750.3,352.5 813.3,427.5 854.3,390.0 875.4,390.0 937.7,352.5 958.8,352.5 1000.5,352.5 1063.5,352.5 1103.8,352.5 1145.5,352.5 1187.2,352.5 1208.4,352.5 1250.1,352.5 1313.0,352.5 1353.3,390.0 1395.0,352.5 1395.0,315.0 1353.3,390.0 1313.0,352.5 1250.1,277.5 1208.4,165.0 1187.2,240.0 1145.5,352.5 1103.8,315.0 1063.5,352.5 1000.5,277.5 958.8,202.5 937.7,277.5 875.4,390.0 854.3,390.0 813.3,427.5 750.3,277.5 708.6,202.5 687.4,277.5 645.7,427.5 604.0,390.0 563.7,390.0 500.8,352.5 459.1,277.5 437.9,315.0 396.2,427.5 354.5,390.0 314.2,390.0 251.3,352.5 209.6,277.5 188.4,315.0 146.7,427.5 105.0,427.5" fill="#f2b31b" opacity="0.82"/>
<path d="M 105.0 427.5 L 146.7 427.5 L 188.4 315.0 L 209.6 277.5 L 251.3 352.5 L 314.2 390.0 L 354.5 390.0 L 396.2 427.5 L 437.9 315.0 L 459.1 277.5 L 500.8 352.5 L 563.7 390.0 L 604.0 390.0 L 645.7 427.5 L 687.4 277.5 L 708.6 202.5 L 750.3 277.5 L 813.3 427.5 L 854.3 390.0 L 875.4 390.0 L 937.7 277.5 L 958.8 202.5 L 1000.5 277.5 L 1063.5 352.5 L 1103.8 315.0 L 1145.5 352.5 L 1187.2 240.0 L 1208.4 165.0 L 1250.1 277.5 L 1313.0 352.5 L 1353.3 390.0 L 1395.0 315.0" fill="none" stroke="#18324a" stroke-width="3" stroke-linejoin="round" stroke-linecap="round"/>
<rect x="1030.0" y="125.0" width="330.0" height="115.0" rx="8" fill="#f5f7f8" stroke="#d5dde3"/>
<text x="1050.0" y="158.0" class="label" text-anchor="start" style="fill:#18324a;font-weight:700">How to read this</text>
<text x="1050.0" y="190.0" class="small" text-anchor="start">Teal = household baseline</text>
<text x="1050.0" y="212.0" class="small" text-anchor="start">Gold = likely outdoor lift</text>
</svg>