<svg xmlns="http://www.w3.org/2000/svg" width="1150" height="760" viewBox="0 0 1150 760">
<rect width="100%" height="100%" fill="white"/>
<style>text{font-family:Arial,Helvetica,sans-serif;fill:#263238}.title{font-size:30px;font-weight:700}.sub{font-size:17px;fill:#6d7780}.small{font-size:13px;fill:#6d7780}.label{font-size:15px}.bold{font-weight:700}.grid{stroke:#e8edf1;stroke-width:1}.axis{stroke:#ccd5dc;stroke-width:1}.note{font-size:14px;fill:#6d7780}</style>
<text x="60.0" y="60.0" class="title" text-anchor="start">Did this year change?</text>
<text x="60.0" y="90.0" class="sub" text-anchor="start">Annual totals show whether a shift is isolated or persistent.</text>
<line x1="110.0" y1="620.0" x2="1010.0" y2="620.0" stroke="#d9e0e5" stroke-width="1"/>
<text x="98.0" y="625.0" class="small" text-anchor="end">0</text>
<line x1="110.0" y1="526.0" x2="1010.0" y2="526.0" stroke="#d9e0e5" stroke-width="1"/>
<text x="98.0" y="531.0" class="small" text-anchor="end">19418</text>
<line x1="110.0" y1="432.0" x2="1010.0" y2="432.0" stroke="#d9e0e5" stroke-width="1"/>
<text x="98.0" y="437.0" class="small" text-anchor="end">38836</text>
<line x1="110.0" y1="338.0" x2="1010.0" y2="338.0" stroke="#d9e0e5" stroke-width="1"/>
<text x="98.0" y="343.0" class="small" text-anchor="end">58254</text>
<line x1="110.0" y1="244.0" x2="1010.0" y2="244.0" stroke="#d9e0e5" stroke-width="1"/>
<text x="98.0" y="249.0" class="small" text-anchor="end">77672</text>
<line x1="110.0" y1="150.0" x2="1010.0" y2="150.0" stroke="#d9e0e5" stroke-width="1"/>
<text x="98.0" y="155.0" class="small" text-anchor="end">97090</text>
<line x1="110.0" y1="620.0" x2="1010.0" y2="620.0" stroke="#ccd5dc" stroke-width="1.2"/>
<line x1="110.0" y1="150.0" x2="110.0" y2="620.0" stroke="#ccd5dc" stroke-width="1.2"/>
<rect x="167.9" y="366.5" width="82.5" height="253.5" rx="6" fill="#39b9c6" stroke="none"/>
<text x="209.1" y="336.5" class="small" text-anchor="middle" style="font-weight:700">52k gal</text>
<text x="209.1" y="354.5" class="small" text-anchor="middle">70 CCF</text>
<text x="209.1" y="652.0" class="label" text-anchor="middle">2021</text>
<rect x="308.2" y="312.2" width="82.5" height="307.8" rx="6" fill="#39b9c6" stroke="none"/>
<text x="349.5" y="282.2" class="small" text-anchor="middle" style="font-weight:700">64k gal</text>
<text x="349.5" y="300.2" class="small" text-anchor="middle">85 CCF</text>
<text x="349.5" y="652.0" class="label" text-anchor="middle">2022</text>
<rect x="448.6" y="276.0" width="82.5" height="344.0" rx="6" fill="#39b9c6" stroke="none"/>
<text x="489.8" y="246.0" class="small" text-anchor="middle" style="font-weight:700">71k gal</text>
<text x="489.8" y="264.0" class="small" text-anchor="middle">95 CCF</text>
<text x="489.8" y="652.0" class="label" text-anchor="middle">2023</text>
<rect x="588.9" y="294.1" width="82.5" height="325.9" rx="6" fill="#39b9c6" stroke="none"/>
<text x="630.2" y="264.1" class="small" text-anchor="middle" style="font-weight:700">67k gal</text>
<text x="630.2" y="282.1" class="small" text-anchor="middle">90 CCF</text>
<text x="630.2" y="652.0" class="label" text-anchor="middle">2024</text>
<rect x="729.3" y="221.7" width="82.5" height="398.3" rx="6" fill="#e96f47" stroke="none"/>
<text x="770.5" y="191.7" class="small" text-anchor="middle" style="font-weight:700">82k gal</text>
<text x="770.5" y="209.7" class="small" text-anchor="middle">110 CCF</text>
<text x="770.5" y="652.0" class="label" text-anchor="middle">2025</text>
<rect x="869.6" y="475.2" width="82.5" height="144.8" rx="6" fill="#39b9c6" stroke="none"/>
<text x="910.9" y="445.2" class="small" text-anchor="middle" style="font-weight:700">30k gal</text>
<text x="910.9" y="463.2" class="small" text-anchor="middle">40 CCF</text>
<text x="910.9" y="652.0" class="label" text-anchor="middle">2026</text>
</svg>