<svg xmlns="http://www.w3.org/2000/svg" width="960" height="720" viewBox="0 0 960 720" role="img" aria-labelledby="title desc">
  <title id="title">Synthetic civic water dashboard illustration</title>
  <desc id="desc">A stylized home, water reservoir, and local water usage dashboard made from synthetic shapes.</desc>
  <defs>
    <linearGradient id="sky" x1="0" y1="0" x2="1" y2="1">
      <stop offset="0" stop-color="#f9fff9"/>
      <stop offset="0.48" stop-color="#dff7f5"/>
      <stop offset="1" stop-color="#fff1c5"/>
    </linearGradient>
    <linearGradient id="water" x1="0" y1="0" x2="1" y2="1">
      <stop offset="0" stop-color="#75dce3"/>
      <stop offset="0.55" stop-color="#007d8d"/>
      <stop offset="1" stop-color="#003f5c"/>
    </linearGradient>
    <filter id="shadow" x="-20%" y="-20%" width="140%" height="150%">
      <feDropShadow dx="0" dy="22" stdDeviation="24" flood-color="#003f5c" flood-opacity="0.18"/>
    </filter>
  </defs>
  <rect width="960" height="720" rx="56" fill="url(#sky)"/>
  <path d="M0 536c113-58 199-70 317-35 120 36 214 25 319-35 119-68 220-62 324 14v240H0z" fill="#d6ec9d" opacity="0.72"/>
  <path d="M0 585c146-72 266-76 402-27 116 42 234 35 357-22 77-36 144-43 201-22v206H0z" fill="url(#water)" opacity="0.92"/>
  <g opacity="0.26" stroke="#ffffff" stroke-width="3" fill="none">
    <path d="M70 620c78-24 145-23 203 2 68 29 136 27 202-7 86-44 176-47 270-11"/>
    <path d="M20 665c92-25 174-20 247 14 83 39 176 32 278-21 90-47 196-45 319 8"/>
  </g>
  <g filter="url(#shadow)">
    <rect x="126" y="156" width="354" height="276" rx="38" fill="#ffffff"/>
    <path d="M158 262l145-92 145 92v143H158z" fill="#f4d992"/>
    <path d="M137 257l166-106 166 106" fill="none" stroke="#003f5c" stroke-width="20" stroke-linecap="round" stroke-linejoin="round"/>
    <rect x="214" y="305" width="62" height="100" rx="14" fill="#006879"/>
    <rect x="316" y="306" width="78" height="58" rx="16" fill="#dff7f5" stroke="#006879" stroke-width="8"/>
    <circle cx="416" cy="191" r="34" fill="#fff7dc"/>
  </g>
  <g filter="url(#shadow)">
    <rect x="516" y="118" width="300" height="430" rx="42" fill="#ffffff"/>
    <rect x="548" y="158" width="236" height="44" rx="22" fill="#e3f4ef"/>
    <circle cx="574" cy="180" r="12" fill="#75dce3"/>
    <rect x="552" y="244" width="38" height="174" rx="19" fill="#75dce3"/>
    <rect x="608" y="204" width="38" height="214" rx="19" fill="#006879"/>
    <rect x="664" y="276" width="38" height="142" rx="19" fill="#8aaa4f"/>
    <rect x="720" y="226" width="38" height="192" rx="19" fill="#f4d992"/>
    <path d="M555 464c63-50 118-57 166-21 30 23 52 27 66 12" fill="none" stroke="#006879" stroke-width="12" stroke-linecap="round"/>
    <text x="552" y="512" font-family="Source Sans 3, Arial, sans-serif" font-size="24" font-weight="800" fill="#003f5c">Private local report</text>
  </g>
  <g transform="translate(92 74)">
    <circle cx="0" cy="0" r="42" fill="#75dce3" opacity="0.35"/>
    <path d="M0-30c26 31 40 53 40 72A40 40 0 1 1-40 42c0-19 14-41 40-72z" fill="#006879"/>
    <path d="M-10 22c18 0 34-9 45-23" fill="none" stroke="#ffffff" stroke-width="7" stroke-linecap="round" opacity="0.85"/>
  </g>
</svg>
