<svg xmlns="http://www.w3.org/2000/svg" width="760" height="520" viewBox="0 0 760 520" role="img" aria-labelledby="title desc">
<title id="title">Irrigation season story</title><desc id="desc">Synthetic yard and controller illustration for irrigation savings.</desc>
<rect width="760" height="520" rx="34" fill="#eef7f4"/><path d="M0 380c120-60 240-60 360 0s260 70 400 0v140H0z" fill="#8aaa4f" opacity=".55"/><rect x="72" y="84" width="270" height="220" rx="30" fill="#fff" stroke="#c4d1d4"/><text x="104" y="134" font-family="Newsreader, Georgia" font-size="35" font-weight="750" fill="#082d3f">Irrigation lift</text><text x="104" y="172" font-family="Source Sans 3, Arial" font-size="18" fill="#5d6f73">Water the plants, not the sidewalk.</text><rect x="112" y="238" width="28" height="44" rx="12" fill="#39b9c6"/><rect x="154" y="206" width="28" height="76" rx="12" fill="#f2b31b"/><rect x="196" y="168" width="28" height="114" rx="12" fill="#f2b31b"/><rect x="238" y="222" width="28" height="60" rx="12" fill="#39b9c6"/>
<g transform="translate(435 118)"><rect width="190" height="250" rx="34" fill="#06364d"/><circle cx="95" cy="78" r="43" fill="#39b9c6"/><path d="M75 168h40M75 204h70" stroke="#c7f2f4" stroke-width="12" stroke-linecap="round"/><text x="95" y="84" text-anchor="middle" font-family="Source Sans 3, Arial" font-size="23" font-weight="900" fill="#06364d">ZONE</text></g>
<path d="M470 390c20-60 52-60 72 0M540 390c20-66 54-66 74 0" fill="none" stroke="#006879" stroke-width="10" stroke-linecap="round"/>
</svg>
