<svg xmlns="http://www.w3.org/2000/svg" width="1280" height="500" viewBox="0 0 1280 500" role="img" aria-labelledby="title desc">
  <title id="title">Mud Buddy by Danno README banner</title>
  <desc id="desc">A calm civic-water launch banner for a local-first EBMUD CSV report tool.</desc>
  <defs>
    <linearGradient id="bg" x1="0" y1="0" x2="1" y2="1"><stop offset="0" stop-color="#fafff8"/><stop offset="0.45" stop-color="#dff7f5"/><stop offset="1" stop-color="#ffeeb8"/></linearGradient>
    <linearGradient id="water" x1="0" y1="0" x2="1" y2="0"><stop offset="0" stop-color="#003f5c"/><stop offset="0.55" stop-color="#007d8d"/><stop offset="1" stop-color="#75dce3"/></linearGradient>
  </defs>
  <rect width="1280" height="500" rx="42" fill="url(#bg)"/>
  <path d="M0 398c152-72 288-82 408-31 126 54 263 42 411-37 153-82 304-73 461 28v142H0z" fill="url(#water)" opacity="0.92"/>
  <g transform="translate(88 86)">
    <path d="M64-28c54 65 82 110 82 150A82 82 0 1 1-18 122c0-40 28-85 82-150z" fill="#006879"/>
    <path d="M40 132c42 0 75-18 101-54" fill="none" stroke="#ffffff" stroke-width="13" stroke-linecap="round" opacity="0.82"/>
  </g>
  <text x="280" y="170" font-family="Newsreader, Georgia" font-size="78" font-weight="750" fill="#082d3f">Mud Buddy by Danno</text>
  <text x="284" y="226" font-family="Source Sans 3, Arial" font-size="30" font-weight="800" fill="#006879">A local-first water report skill for EBMUD exports.</text>
  <text x="284" y="278" font-family="Source Sans 3, Arial" font-size="24" font-weight="650" fill="#516366">Export CSV. Analyze locally. Share public-safe summaries only when you choose.</text>
  <g transform="translate(878 90)">
    <rect width="300" height="236" rx="32" fill="#ffffff" opacity="0.92"/>
    <rect x="32" y="34" width="154" height="24" rx="12" fill="#e3f4ef"/>
    <rect x="36" y="96" width="30" height="88" rx="15" fill="#75dce3"/>
    <rect x="82" y="72" width="30" height="112" rx="15" fill="#006879"/>
    <rect x="128" y="122" width="30" height="62" rx="15" fill="#8aaa4f"/>
    <rect x="174" y="86" width="30" height="98" rx="15" fill="#f4d992"/>
    <path d="M36 204c68-30 132-28 192 7" fill="none" stroke="#006879" stroke-width="10" stroke-linecap="round"/>
  </g>
</svg>
