<svg xmlns="http://www.w3.org/2000/svg" width="1080" height="560" viewBox="0 0 1080 560" role="img" aria-labelledby="title desc">
<title id="title">Synthetic sample report montage</title><desc id="desc">Three synthetic report panels showing timeline, irrigation lift, and fixture checks.</desc>
<rect width="1080" height="560" fill="#f6fbf8"/><text x="72" y="70" font-family="Newsreader, Georgia" font-size="46" font-weight="750" fill="#082d3f">What the report helps you notice</text>
<g transform="translate(70 120)" font-family="Source Sans 3, Arial"><rect width="290" height="350" rx="32" fill="#fff" stroke="#c4d1d4"/><text x="30" y="56" font-size="24" font-weight="900" fill="#06364d">Trend</text><polyline points="30,238 82,220 134,214 186,150 238,116" fill="none" stroke="#39b9c6" stroke-width="9" stroke-linecap="round"/><text x="30" y="302" font-size="17" fill="#5d6f73">Is the jump persistent or just one period?</text></g>
<g transform="translate(395 120)" font-family="Source Sans 3, Arial"><rect width="290" height="350" rx="32" fill="#fff" stroke="#c4d1d4"/><text x="30" y="56" font-size="24" font-weight="900" fill="#06364d">Irrigation</text><rect x="42" y="214" width="34" height="58" rx="12" fill="#39b9c6"/><rect x="92" y="174" width="34" height="98" rx="12" fill="#f2b31b"/><rect x="142" y="128" width="34" height="144" rx="12" fill="#f2b31b"/><rect x="192" y="198" width="34" height="74" rx="12" fill="#39b9c6"/><text x="30" y="302" font-size="17" fill="#5d6f73">Does outdoor lift explain summer use?</text></g>
<g transform="translate(720 120)" font-family="Source Sans 3, Arial"><rect width="290" height="350" rx="32" fill="#fff" stroke="#c4d1d4"/><text x="30" y="56" font-size="24" font-weight="900" fill="#06364d">Next checks</text><circle cx="74" cy="146" r="31" fill="#e8f7f8"/><path d="M63 146l9 10 18-23" fill="none" stroke="#006879" stroke-width="7" stroke-linecap="round"/><circle cx="146" cy="146" r="31" fill="#fff7df"/><path d="M131 151c18-36 28-36 48 0" fill="none" stroke="#8a6510" stroke-width="7" stroke-linecap="round"/><circle cx="218" cy="146" r="31" fill="#edf5df"/><path d="M205 152h26M218 139v26" stroke="#53642f" stroke-width="7" stroke-linecap="round"/><text x="30" y="302" font-size="17" fill="#5d6f73">Which easy check should happen first?</text></g>
</svg>
