<svg xmlns="http://www.w3.org/2000/svg" width="980" height="360" viewBox="0 0 980 360" role="img" aria-labelledby="title desc">
  <title id="title">Synthetic CSV to report workflow</title>
  <desc id="desc">A three step local workflow from official CSV export to Mud Buddy report to public-safe sharing.</desc>
  <defs>
    <linearGradient id="bg" x1="0" y1="0" x2="1" y2="1"><stop offset="0" stop-color="#f8fdf9"/><stop offset="1" stop-color="#dcf5f4"/></linearGradient>
    <linearGradient id="blue" x1="0" y1="0" x2="1" y2="1"><stop offset="0" stop-color="#75dce3"/><stop offset="1" stop-color="#003f5c"/></linearGradient>
  </defs>
  <rect width="980" height="360" rx="44" fill="url(#bg)"/>
  <g fill="none" stroke="#006879" stroke-width="10" stroke-linecap="round" opacity="0.26">
    <path d="M270 176h122"/><path d="M588 176h122"/>
    <path d="M374 154l28 22-28 22M692 154l28 22-28 22"/>
  </g>
  <g transform="translate(70 72)">
    <rect width="210" height="216" rx="30" fill="#ffffff" stroke="#c6dfdf"/>
    <path d="M52 42h80l34 34v98H52z" fill="#f4d992" stroke="#003f5c" stroke-width="7" stroke-linejoin="round"/>
    <path d="M132 42v38h34" fill="none" stroke="#003f5c" stroke-width="7" stroke-linejoin="round"/>
    <text x="105" y="136" text-anchor="middle" font-family="Source Sans 3, Arial" font-size="28" font-weight="900" fill="#003f5c">CSV</text>
    <text x="105" y="198" text-anchor="middle" font-family="Source Sans 3, Arial" font-size="22" font-weight="800" fill="#516366">Export</text>
  </g>
  <g transform="translate(386 52)">
    <rect width="242" height="256" rx="34" fill="#ffffff" stroke="#c6dfdf"/>
    <rect x="30" y="36" width="182" height="36" rx="18" fill="#e3f4ef"/>
    <rect x="34" y="106" width="28" height="96" rx="14" fill="#75dce3"/>
    <rect x="76" y="82" width="28" height="120" rx="14" fill="#006879"/>
    <rect x="118" y="132" width="28" height="70" rx="14" fill="#8aaa4f"/>
    <rect x="160" y="96" width="28" height="106" rx="14" fill="#f4d992"/>
    <path d="M34 222c54-26 104-23 151 8" fill="none" stroke="url(#blue)" stroke-width="9" stroke-linecap="round"/>
    <text x="121" y="246" text-anchor="middle" font-family="Source Sans 3, Arial" font-size="22" font-weight="900" fill="#003f5c">Analyze locally</text>
  </g>
  <g transform="translate(716 72)">
    <rect width="210" height="216" rx="30" fill="#ffffff" stroke="#c6dfdf"/>
    <circle cx="105" cy="86" r="48" fill="#e8f7f8"/>
    <path d="M83 86l16 17 33-39" fill="none" stroke="#317d47" stroke-width="12" stroke-linecap="round" stroke-linejoin="round"/>
    <rect x="50" y="148" width="110" height="18" rx="9" fill="#003f5c" opacity="0.9"/>
    <rect x="66" y="178" width="78" height="14" rx="7" fill="#75dce3"/>
    <text x="105" y="198" text-anchor="middle" font-family="Source Sans 3, Arial" font-size="22" font-weight="800" fill="#516366">Share safely</text>
  </g>
</svg>
