<svg xmlns="http://www.w3.org/2000/svg" width="1200" height="630" viewBox="0 0 1200 630" role="img" aria-label="Mud Buddy by Danno social card">
  <defs>
    <linearGradient id="bg" x1="0" y1="0" x2="1" y2="1"><stop stop-color="#f8fbf7"/><stop offset=".48" stop-color="#dff5f3"/><stop offset="1" stop-color="#f4d992"/></linearGradient>
    <linearGradient id="drop" x1="0" y1="0" x2="1" y2="1"><stop stop-color="#003f5c"/><stop offset=".62" stop-color="#006879"/><stop offset="1" stop-color="#6ed6df"/></linearGradient>
    <filter id="shadow" x="-20%" y="-20%" width="140%" height="140%"><feDropShadow dx="0" dy="26" stdDeviation="28" flood-color="#003f5c" flood-opacity=".22"/></filter>
  </defs>
  <rect width="1200" height="630" fill="url(#bg)"/>
  <circle cx="1010" cy="60" r="220" fill="#6ed6df" opacity=".24"/>
  <circle cx="160" cy="560" r="260" fill="#8aaa4f" opacity=".16"/>
  <g filter="url(#shadow)">
    <rect x="690" y="105" width="380" height="420" rx="44" fill="#fff" stroke="#cfe4e1"/>
    <rect x="730" y="155" width="300" height="32" rx="16" fill="#dff5f3"/>
    <rect x="730" y="220" width="40" height="220" rx="20" fill="#6ed6df"/>
    <rect x="790" y="270" width="40" height="170" rx="20" fill="#003f5c"/>
    <rect x="850" y="190" width="40" height="250" rx="20" fill="#f4d992"/>
    <rect x="910" y="245" width="40" height="195" rx="20" fill="#8aaa4f"/>
    <rect x="970" y="300" width="40" height="140" rx="20" fill="#c46a4a"/>
  </g>
  <path d="M151 123c46 72 95 115 95 190 0 74-48 126-95 126S56 387 56 313c0-75 49-118 95-190Z" fill="url(#drop)" filter="url(#shadow)"/>
  <text x="100" y="150" font-family="Source Sans 3, Arial, sans-serif" font-size="30" font-weight="800" fill="#003f5c">Mud Buddy by Danno</text>
  <text x="100" y="272" font-family="Newsreader, Georgia, serif" font-size="82" font-weight="750" fill="#082d3f">Understand your</text>
  <text x="100" y="358" font-family="Newsreader, Georgia, serif" font-size="82" font-weight="750" fill="#082d3f">EBMUD water use</text>
  <text x="100" y="428" font-family="Source Sans 3, Arial, sans-serif" font-size="31" font-weight="600" fill="#516366">Free. Local-first. Public-safe by default.</text>
  <text x="100" y="500" font-family="Source Sans 3, Arial, sans-serif" font-size="25" font-weight="800" fill="#006879">A Codex skill + Material report generator</text>
</svg>
